<svg width="64" height="64" viewBox="0 0 64 64" xmlns="http://www.w3.org/2000/svg">
  <rect width="64" height="64" fill="#07070e"/>
  <circle cx="32" cy="32" r="30" fill="none" stroke="#00ff8812" stroke-width="1"/>
  <circle cx="32" cy="32" r="27" fill="#0d0d1e" stroke="#00ff8835" stroke-width="1"/>
  <rect x="17" y="42" width="4" height="8"  rx="1"   fill="#0c2016"/>
  <rect x="23" y="38" width="4" height="12" rx="1"   fill="#0f3520"/>
  <rect x="29" y="33" width="4" height="17" rx="1"   fill="#006838"/>
  <rect x="35" y="27" width="4" height="23" rx="1"   fill="#00cc60"/>
  <rect x="41" y="21" width="4" height="29" rx="1"   fill="#00ff88"/>
  <line x1="43" y1="18" x2="43" y2="21" stroke="#00ff88" stroke-width="1.5" stroke-linecap="round"/>
  <circle cx="43" cy="21" r="2" fill="#00ff88"/>
  <path d="M 39,21 A 4,4 0 0,1 47,21" stroke="#00ff88" stroke-width="1.5" fill="none" stroke-linecap="round"/>
  <path d="M 35,21 A 8,8 0 0,1 51,21" stroke="#00ff8840" stroke-width="1" fill="none" stroke-linecap="round"/>
</svg>