<svg width="420" height="260" viewBox="0 0 420 260" xmlns="http://www.w3.org/2000/svg">
  <circle cx="210" cy="88" r="81" fill="none" stroke="#00ff8810" stroke-width="1.5"/>
  <circle cx="210" cy="88" r="76" fill="#0d0d1e" stroke="#00ff8832" stroke-width="1"/>
  <circle cx="210" cy="88" r="68" fill="none" stroke="#0d1f11" stroke-width="0.5"/>
  <rect x="173" y="125" width="10" height="20" rx="2" fill="#0c2016"/>
  <rect x="187" y="112" width="10" height="33" rx="2" fill="#0f3520"/>
  <rect x="201" y="97"  width="10" height="48" rx="2" fill="#006838"/>
  <rect x="215" y="81"  width="10" height="64" rx="2" fill="#00cc60"/>
  <rect x="229" y="62"  width="10" height="83" rx="2" fill="#00ff88"/>
  <rect x="229" y="62"  width="10" height="3"  rx="1.5" fill="#ffffff" opacity="0.2"/>
  <line x1="234" y1="56" x2="234" y2="62" stroke="#00ff88" stroke-width="1.8" stroke-linecap="round"/>
  <circle cx="234" cy="62" r="2.8" fill="#00ff88"/>
  <path d="M 224,62 A 10,10 0 0,1 244,62" stroke="#00ff88" stroke-width="2" fill="none" stroke-linecap="round"/>
  <path d="M 215,62 A 19,19 0 0,1 253,62" stroke="#00ff8848" stroke-width="1.5" fill="none" stroke-linecap="round"/>
  <line x1="132" y1="148" x2="288" y2="148" stroke="#00ff8815" stroke-width="0.8"/>
  <text x="210" y="196"
    font-family="'DM Sans',system-ui,sans-serif"
    font-size="32" font-weight="800" letter-spacing="4"
    fill="#00ff88" text-anchor="middle">MARKET</text>
  <text x="210" y="235"
    font-family="'DM Sans',system-ui,sans-serif"
    font-size="32" font-weight="800" letter-spacing="2"
    fill="#e8eaf0" text-anchor="middle">SAMACHAR</text>
</svg>