<svg width="200" height="44" viewBox="0 0 200 44" xmlns="http://www.w3.org/2000/svg">
  <circle cx="22" cy="22" r="19" fill="#0d0d1e" stroke="#00ff8830" stroke-width="0.8"/>
  <rect x="13" y="29" width="3" height="6"  rx="1" fill="#0c2016"/>
  <rect x="17" y="26" width="3" height="9"  rx="1" fill="#0f3520"/>
  <rect x="21" y="23" width="3" height="12" rx="1" fill="#006838"/>
  <rect x="25" y="19" width="3" height="16" rx="1" fill="#00cc60"/>
  <rect x="29" y="15" width="3" height="20" rx="1" fill="#00ff88"/>
  <circle cx="30.5" cy="15" r="1.8" fill="#00ff88"/>
  <path d="M 27,15 A 3.5,3.5 0 0,1 34,15" stroke="#00ff88" stroke-width="1.5" fill="none" stroke-linecap="round"/>
  <path d="M 24,15 A 6.5,6.5 0 0,1 37,15" stroke="#00ff8845" stroke-width="1" fill="none" stroke-linecap="round"/>
  <line x1="6" y1="35" x2="38" y2="35" stroke="#00ff8815" stroke-width="0.5"/>
  <line x1="46" y1="8" x2="46" y2="36" stroke="#1a1a2e" stroke-width="0.8"/>
  <text x="53" y="18"
    font-family="'DM Sans',system-ui,sans-serif"
    font-size="11" font-weight="800" letter-spacing="2.5"
    fill="#00ff88">MARKET</text>
  <text x="53" y="33"
    font-family="'DM Sans',system-ui,sans-serif"
    font-size="13" font-weight="800" letter-spacing="1.5"
    fill="#e8eaf0">SAMACHAR</text>
</svg>