<svg width="1200" height="630" viewBox="0 0 1200 630" xmlns="http://www.w3.org/2000/svg">
  <rect width="1200" height="630" fill="#07070e"/>
  <path d="M50,2 L2,2 L2,50"    fill="none" stroke="#1a1a2e" stroke-width="1.5"/>
  <path d="M1150,2 L1198,2 L1198,50" fill="none" stroke="#1a1a2e" stroke-width="1.5"/>
  <path d="M2,580 L2,628 L50,628" fill="none" stroke="#1a1a2e" stroke-width="1.5"/>
  <path d="M1198,580 L1198,628 L1150,628" fill="none" stroke="#1a1a2e" stroke-width="1.5"/>
  <!-- Subtle dot grid background -->
  <pattern id="g" width="40" height="40" patternUnits="userSpaceOnUse">
    <circle cx="20" cy="20" r="0.8" fill="#1a1a2e"/>
  </pattern>
  <rect width="1200" height="630" fill="url(#g)" opacity="0.6"/>
  <!-- Left: large circle icon badge -->
  <circle cx="320" cy="290" r="222" fill="none" stroke="#00ff880c" stroke-width="2"/>
  <circle cx="320" cy="290" r="212" fill="#0d0d1e" stroke="#00ff8828" stroke-width="1.2"/>
  <circle cx="320" cy="290" r="190" fill="none" stroke="#0d1f11" stroke-width="0.5"/>
  <!-- 5 bars centered at (320,290), baseline y=427 -->
  <rect x="236" y="387" width="22" height="40"  rx="3.5" fill="#0c2016"/>
  <rect x="268" y="360" width="22" height="67"  rx="3.5" fill="#0f3520"/>
  <rect x="300" y="329" width="22" height="98"  rx="3.5" fill="#006838"/>
  <rect x="332" y="295" width="22" height="132" rx="3.5" fill="#00cc60"/>
  <rect x="364" y="254" width="22" height="173" rx="3.5" fill="#00ff88"/>
  <rect x="364" y="254" width="22" height="6"   rx="3"   fill="#ffffff" opacity="0.2"/>
  <line x1="375" y1="242" x2="375" y2="254" stroke="#00ff88" stroke-width="3" stroke-linecap="round"/>
  <circle cx="375" cy="254" r="5.5" fill="#00ff88"/>
  <path d="M 349,254 A 26,26 0 0,1 401,254" stroke="#00ff88" stroke-width="3.5" fill="none" stroke-linecap="round"/>
  <path d="M 325,254 A 50,50 0 0,1 425,254" stroke="#00ff8848" stroke-width="2.5" fill="none" stroke-linecap="round"/>
  <line x1="108" y1="430" x2="532" y2="430" stroke="#00ff8815" stroke-width="1.2"/>
  <!-- Right: brand text -->
  <line x1="590" y1="100" x2="590" y2="530" stroke="#141428" stroke-width="0.8"/>
  <text x="640" y="226"
    font-family="'DM Sans',system-ui,sans-serif"
    font-size="92" font-weight="800" letter-spacing="6"
    fill="#00ff88">MARKET</text>
  <text x="640" y="332"
    font-family="'DM Sans',system-ui,sans-serif"
    font-size="92" font-weight="800" letter-spacing="4"
    fill="#e8eaf0">SAMACHAR</text>
  <!-- Accent line under brand name -->
  <rect x="640" y="348" width="180" height="3.5" rx="2" fill="#00ff88"/>
  <!-- Tagline -->
  <text x="640" y="402"
    font-family="'DM Mono','Courier New',monospace"
    font-size="20" font-weight="400" letter-spacing="3"
    fill="#445566">LIVE MARKET NEWS · INDIA &amp; GLOBAL</text>
  <!-- Category pills -->
  <rect x="640" y="428" width="100" height="26" rx="4" fill="#0d0d1e" stroke="#00ff8830" stroke-width="0.8"/>
  <text x="690" y="446" font-family="'DM Mono',monospace" font-size="11" letter-spacing="2" fill="#00ff88" text-anchor="middle">STOCKS</text>
  <rect x="748" y="428" width="100" height="26" rx="4" fill="#0d0d1e" stroke="#00aaff30" stroke-width="0.8"/>
  <text x="798" y="446" font-family="'DM Mono',monospace" font-size="11" letter-spacing="2" fill="#00aaff" text-anchor="middle">GLOBAL</text>
  <rect x="856" y="428" width="90" height="26" rx="4" fill="#0d0d1e" stroke="#ff880030" stroke-width="0.8"/>
  <text x="901" y="446" font-family="'DM Mono',monospace" font-size="11" letter-spacing="2" fill="#ff8800" text-anchor="middle">CRYPTO</text>
  <rect x="954" y="428" width="70" height="26" rx="4" fill="#0d0d1e" stroke="#aa88ff30" stroke-width="0.8"/>
  <text x="989" y="446" font-family="'DM Mono',monospace" font-size="11" letter-spacing="2" fill="#aa88ff" text-anchor="middle">IPO</text>
  <!-- Domain -->
  <text x="640" y="524"
    font-family="'DM Mono','Courier New',monospace"
    font-size="18" font-weight="400" letter-spacing="3"
    fill="#00ff88">marketsamachar.in</text>
  <!-- Bottom green bar -->
  <rect x="0" y="620" width="1200" height="10" fill="none"/>
  <rect x="0" y="622" width="1200" height="3"  fill="#00ff8822"/>
  <!-- Live indicator bottom left -->
  <circle cx="30" cy="600" r="4" fill="#00ff88" opacity="0.7"/>
  <text x="42" y="605" font-family="'DM Mono',monospace" font-size="13" letter-spacing="2" fill="#334455">LIVE</text>
</svg>